<?xml version="1.0" standalone="no"?>
<!DOCTYPE svg PUBLIC "-//W3C//DTD SVG 20010904//EN"
 "http://www.w3.org/TR/2001/REC-SVG-20010904/DTD/svg10.dtd">
<svg version="1.0" xmlns="http://www.w3.org/2000/svg"
 width="207.000000pt" height="206.000000pt" viewBox="0 0 207.000000 206.000000"
 preserveAspectRatio="xMidYMid meet">

<g transform="translate(0.000000,206.000000) scale(0.100000,-0.100000)"
fill="#000000" stroke="none">
<path d="M10 1030 l0 -1020 1025 0 1025 0 0 1020 0 1020 -1025 0 -1025 0 0
-1020z m1900 557 c0 -167 -3 -480 -7 -696 l-6 -392 -168 -169 -168 -169 -695
-1 -696 0 0 477 c0 263 -3 652 -7 866 l-6 387 876 0 877 0 0 -303z"/>
<path d="M1190 1500 c0 -39 1 -40 35 -40 34 0 35 -1 35 -40 0 -39 1 -40 35
-40 33 0 35 -2 35 -35 0 -33 2 -35 35 -35 32 0 35 -2 35 -30 0 -21 -5 -30 -17
-31 -10 -1 -25 -2 -33 -3 -10 -1 -16 -14 -18 -38 -3 -36 -5 -38 -38 -38 -31 0
-34 -2 -34 -30 0 -28 -3 -30 -35 -30 l-35 0 -2 173 -3 172 -180 0 -180 0 0
-180 0 -180 37 -3 37 -3 3 71 3 71 100 2 100 2 3 -72 3 -73 39 0 c39 0 40 -1
40 -35 0 -34 1 -35 39 -35 37 0 40 2 43 33 3 28 7 32 35 35 28 3 32 7 35 35 3
28 7 32 35 35 29 3 32 7 35 39 3 31 7 37 30 40 25 3 27 0 30 -34 3 -35 6 -38
35 -41 28 -3 32 -7 35 -35 2 -27 8 -33 31 -35 23 -3 27 -8 27 -33 0 -28 2 -29
46 -29 l45 0 -3 38 c-3 32 -7 37 -31 40 -22 3 -29 10 -34 32 -4 24 -11 29 -37
32 -28 3 -31 6 -31 35 0 28 -3 32 -37 37 -34 6 -38 9 -38 36 0 27 3 30 34 30
32 0 35 3 38 33 3 28 7 32 35 35 29 3 32 7 35 40 3 34 6 37 36 40 30 3 32 6
32 43 0 39 0 39 -40 39 -40 0 -40 0 -40 -39 0 -37 -2 -40 -32 -43 -29 -3 -33
-7 -36 -35 -3 -30 -6 -33 -38 -33 -32 0 -34 -2 -34 -35 0 -32 -2 -35 -30 -35
-28 0 -30 3 -30 35 0 33 -2 35 -35 35 -33 0 -35 2 -35 34 0 32 -3 35 -32 38
-30 3 -33 6 -36 41 -3 36 -4 37 -43 37 -39 0 -39 0 -39 -40z m-82 -152 l3 -28
-105 0 c-104 0 -106 0 -106 23 0 13 3 27 7 31 4 4 50 5 103 4 l95 -3 3 -27z"/>
<path d="M395 1458 c-3 -8 -4 -95 -3 -193 l3 -180 45 0 45 0 3 108 c2 99 4
107 22 107 16 0 20 -7 20 -35 l0 -35 50 0 50 0 0 35 c0 28 4 35 20 35 18 0 20
-8 22 -107 l3 -108 45 0 45 0 3 193 2 193 -47 -3 c-46 -3 -48 -4 -51 -35 -3
-28 -7 -32 -35 -35 -28 -3 -32 -7 -35 -35 -2 -24 -8 -33 -22 -33 -14 0 -20 9
-22 33 -3 28 -7 32 -35 35 -28 3 -32 7 -35 35 -3 30 -6 32 -46 35 -28 2 -44
-1 -47 -10z"/>
<path d="M410 745 l0 -185 183 2 182 3 0 35 0 35 -142 3 -143 3 0 99 c0 73 3
100 13 100 6 1 71 2 142 3 l130 2 0 40 0 40 -182 3 -183 2 0 -185z"/>
<path d="M840 745 l0 -185 180 0 180 0 -2 183 -3 182 -177 3 -178 2 0 -185z
m278 -3 l3 -102 -101 0 -100 0 0 98 c0 54 3 102 7 106 4 4 48 6 98 3 l90 -4 3
-101z"/>
<path d="M1260 745 l0 -185 40 0 40 0 0 105 0 105 30 0 c28 0 30 -3 30 -35 0
-34 1 -35 40 -35 39 0 40 1 40 35 0 32 2 35 30 35 l29 0 3 -102 3 -103 40 0
40 0 0 180 0 180 -40 0 c-38 0 -40 -2 -43 -32 -3 -28 -7 -32 -35 -35 -28 -3
-33 -7 -37 -38 -4 -29 -9 -35 -30 -35 -22 0 -25 5 -28 38 -3 35 -5 37 -38 37
-32 0 -34 2 -34 35 0 34 -1 35 -40 35 l-40 0 0 -185z"/>
</g>
</svg>
